<?xml version="1.0" encoding="UTF-8"?>
<svg xmlns="http://www.w3.org/2000/svg" viewBox="0 0 900 1400" role="img" aria-label="Decoración elegante azul plumbago con corona, flores y destellos, sin texto">
  <defs>
    <radialGradient id="bg" cx="50%" cy="42%" r="78%">
      <stop offset="0" stop-color="#8fa0bf"/>
      <stop offset="0.45" stop-color="#6B7FA6"/>
      <stop offset="1" stop-color="#2C3E5A"/>
    </radialGradient>
    <linearGradient id="silver" x1="0" y1="0" x2="1" y2="1">
      <stop offset="0" stop-color="#ffffff"/>
      <stop offset="0.45" stop-color="#C0C8D4"/>
      <stop offset="1" stop-color="#eef2f7"/>
    </linearGradient>
    <linearGradient id="lavender" x1="0" y1="0" x2="1" y2="1">
      <stop offset="0" stop-color="#d9d1e8"/>
      <stop offset="1" stop-color="#B8A9C9"/>
    </linearGradient>
    <filter id="glow" x="-50%" y="-50%" width="200%" height="200%">
      <feGaussianBlur stdDeviation="5" result="blur"/>
      <feMerge><feMergeNode in="blur"/><feMergeNode in="SourceGraphic"/></feMerge>
    </filter>
    <filter id="soft" x="-30%" y="-30%" width="160%" height="160%">
      <feGaussianBlur stdDeviation="1.2"/>
    </filter>
    <path id="petal" d="M0,-42 C24,-34 42,-12 37,12 C32,38 7,49 -10,31 C-28,12 -23,-25 0,-42Z"/>
    <g id="flower">
      <use href="#petal" fill="#d7dceb" opacity="0.94"/>
      <use href="#petal" fill="#c8d0dd" opacity="0.9" transform="rotate(58)"/>
      <use href="#petal" fill="#eef2f7" opacity="0.88" transform="rotate(120)"/>
      <use href="#petal" fill="#b8a9c9" opacity="0.55" transform="rotate(188)"/>
      <use href="#petal" fill="#f5f7fb" opacity="0.8" transform="rotate(246)"/>
      <circle r="12" fill="url(#silver)"/>
      <circle r="5" fill="#B8A9C9"/>
    </g>
  </defs>

  <rect width="900" height="1400" fill="url(#bg)"/>
  <ellipse cx="450" cy="660" rx="300" ry="420" fill="#ffffff" opacity="0.08" filter="url(#soft)"/>
  <ellipse cx="450" cy="660" rx="210" ry="310" fill="#ffffff" opacity="0.08"/>

  <path d="M-70 118 C110 240 85 404 18 552 C-65 734 20 884 172 1020 C280 1117 248 1268 100 1455" fill="none" stroke="url(#silver)" stroke-width="22" opacity="0.22"/>
  <path d="M970 88 C780 238 805 412 875 568 C965 770 830 955 690 1080 C585 1174 640 1308 805 1458" fill="none" stroke="url(#lavender)" stroke-width="20" opacity="0.24"/>
  <path d="M30 70 C180 210 150 360 90 480" fill="none" stroke="#C0C8D4" stroke-width="3" opacity="0.42"/>
  <path d="M868 90 C700 240 732 368 812 510" fill="none" stroke="#C0C8D4" stroke-width="3" opacity="0.42"/>

  <g transform="translate(450 188)" filter="url(#glow)" opacity="0.98">
    <path d="M-145 80 C-88 34 -66 26 -34 76 C-8 18 14 -4 39 76 C80 28 104 34 145 80" fill="none" stroke="url(#silver)" stroke-width="9" stroke-linecap="round" stroke-linejoin="round"/>
    <path d="M-158 96 C-80 118 80 118 158 96" fill="none" stroke="url(#silver)" stroke-width="8" stroke-linecap="round"/>
    <path d="M-118 92 L-98 42 L-76 88 M-30 92 L-8 20 L18 92 M78 88 L102 42 L126 92" fill="none" stroke="#e8edf5" stroke-width="5" stroke-linecap="round" stroke-linejoin="round" opacity="0.92"/>
    <circle cx="-98" cy="40" r="11" fill="url(#silver)"/>
    <circle cx="-8" cy="18" r="13" fill="url(#silver)"/>
    <circle cx="102" cy="40" r="11" fill="url(#silver)"/>
    <circle cx="-42" cy="70" r="7" fill="#B8A9C9"/>
    <circle cx="48" cy="70" r="7" fill="#B8A9C9"/>
  </g>

  <g opacity="0.92">
    <g transform="translate(98 128) rotate(-24) scale(1.45)"><use href="#flower"/></g>
    <g transform="translate(35 262) rotate(20) scale(.95)"><use href="#flower"/></g>
    <g transform="translate(126 1188) rotate(20) scale(1.36)"><use href="#flower"/></g>
    <g transform="translate(62 1042) rotate(-25) scale(.9)"><use href="#flower"/></g>
    <g transform="translate(802 185) rotate(22) scale(1.22)"><use href="#flower"/></g>
    <g transform="translate(842 1044) rotate(-20) scale(1.35)"><use href="#flower"/></g>
    <g transform="translate(760 1198) rotate(25) scale(.95)"><use href="#flower"/></g>
  </g>

  <g fill="none" stroke="#eef2f7" stroke-width="3" stroke-linecap="round" opacity="0.55">
    <path d="M135 196 C212 228 224 290 196 344"/>
    <path d="M744 226 C675 250 650 316 672 374"/>
    <path d="M166 1072 C248 1030 310 1066 340 1136"/>
    <path d="M752 1098 C688 1038 618 1058 584 1124"/>
  </g>
  <g fill="url(#lavender)" opacity="0.7">
    <ellipse cx="180" cy="244" rx="10" ry="23" transform="rotate(-28 180 244)"/>
    <ellipse cx="205" cy="288" rx="8" ry="20" transform="rotate(20 205 288)"/>
    <ellipse cx="704" cy="300" rx="9" ry="22" transform="rotate(36 704 300)"/>
    <ellipse cx="724" cy="1132" rx="9" ry="22" transform="rotate(-28 724 1132)"/>
    <ellipse cx="235" cy="1114" rx="8" ry="21" transform="rotate(34 235 1114)"/>
  </g>

  <g fill="#ffffff" opacity="0.76" filter="url(#glow)">
    <circle cx="225" cy="150" r="3"/><circle cx="704" cy="132" r="3"/><circle cx="128" cy="540" r="2.5"/><circle cx="775" cy="560" r="2.5"/><circle cx="230" cy="884" r="2"/><circle cx="674" cy="872" r="2"/><circle cx="432" cy="322" r="2.5"/><circle cx="482" cy="1092" r="2.5"/>
    <path d="M250 390 l9 22 l22 9 l-22 9 l-9 22 l-9 -22 l-22 -9 l22 -9z"/>
    <path d="M668 420 l7 18 l18 7 l-18 7 l-7 18 l-7 -18 l-18 -7 l18 -7z"/>
    <path d="M450 1010 l8 20 l20 8 l-20 8 l-8 20 l-8 -20 l-20 -8 l20 -8z"/>
  </g>

  <path d="M255 1078 C330 1130 570 1130 645 1078" fill="none" stroke="url(#silver)" stroke-width="4" stroke-linecap="round" opacity="0.58"/>
  <path d="M318 1107 C382 1134 518 1134 582 1107" fill="none" stroke="url(#lavender)" stroke-width="3" stroke-linecap="round" opacity="0.65"/>
</svg>